<?xml version="1.0" encoding="utf-8"?>
<!-- Generator: Adobe Illustrator 16.0.4, SVG Export Plug-In . SVG Version: 6.00 Build 0)  -->
<!DOCTYPE svg PUBLIC "-//W3C//DTD SVG 1.1 Tiny//EN" "http://www.w3.org/Graphics/SVG/1.1/DTD/svg11-tiny.dtd">
<svg version="1.1" baseProfile="tiny" id="Layer_1" xmlns="http://www.w3.org/2000/svg" xmlns:xlink="http://www.w3.org/1999/xlink"
	 x="0px" y="0px" width="84.359px" height="50.34px" viewBox="0 0 84.359 50.34" xml:space="preserve">
<rect y="26.615" width="84.359" height="0.62"/>
<rect y="16.695" width="84.359" height="0.62"/>
<rect y="11.735" width="84.359" height="0.62"/>
<rect y="21.655" width="84.359" height="0.62"/>
<rect y="6.775" width="84.359" height="0.62"/>
<rect x="83.367" y="6.775" width="0.992" height="20.46"/>
<rect x="33.076" y="14.525" width="0.595" height="16.428"/>
<rect x="25.093" y="31.472" width="10.562" height="0.826"/>
<rect x="55.305" y="15.497" width="0.595" height="15.148"/>
<g>
	<path d="M29.269,42.019c0.28,0,0.3,0,0.4-0.3c0.66-1.92,1.74-3.301,3.681-3.301c1.26,0,1.721,0.6,1.721,1.34s-0.46,1.08-0.98,1.08
		c-0.5,0-0.9-0.28-0.9-0.84c0-0.36,0.16-0.64,0.42-0.76c0.22-0.1,0.32-0.08,0.32-0.2s-0.16-0.16-0.32-0.16
		c-1,0-1.44,1.061-1.84,2.801c-0.02,0.12-0.04,0.18-0.04,0.24c0,0.1,0.06,0.1,0.2,0.1h1.2c0.2,0,0.3,0.1,0.3,0.3
		c0,0.22-0.1,0.32-0.32,0.32h-1.3c-0.1,0-0.26,0.18-0.26,0.22c0,0.02-0.02,0.04-0.02,0.06c-0.48,1.68-0.92,2.92-1.5,4.141
		c-1.1,2.261-2.04,3.281-3.561,3.281c-0.84,0-1.5-0.46-1.5-1.34c0-0.62,0.44-1.1,1.041-1.1c0.54,0,0.9,0.3,0.9,0.82
		c0,0.32-0.16,0.58-0.4,0.74c-0.3,0.2-0.48,0.1-0.48,0.26c0,0.1,0.1,0.18,0.36,0.18c0.8,0,1.16-0.64,1.721-2.601l1.26-4.381
		c0.02-0.1,0.04-0.16,0.04-0.2c0-0.08-0.04-0.08-0.16-0.08h-1.16c-0.2,0-0.3-0.1-0.3-0.3c0-0.22,0.1-0.32,0.32-0.32H29.269z"/>
</g>
<g>
	<path d="M62.798,43.599c0,1.9-1.561,3.901-3.481,3.901c-0.34,0-0.6-0.04-0.88-0.18c-0.32-0.16-0.38-0.36-0.48-0.36
		s-0.14,0.14-0.18,0.24l-0.9,2.241c-0.02,0.06-0.04,0.12-0.04,0.14c0,0.06,0.06,0.06,0.18,0.06h0.8c0.16,0,0.24,0.08,0.24,0.24
		c0,0.18-0.08,0.26-0.26,0.26h-3.861c-0.16,0-0.24-0.08-0.24-0.24c0-0.18,0.08-0.26,0.26-0.26h0.62c0.2,0,0.24-0.04,0.3-0.2
		l2.46-6.102c0.06-0.14,0.12-0.34,0.12-0.5c0-0.14-0.06-0.24-0.22-0.24c-0.36,0-0.76,0.521-1.34,1.521c-0.1,0.18-0.18,0.3-0.32,0.3
		c-0.12,0-0.22-0.08-0.22-0.22c0-0.1,0.04-0.2,0.14-0.38c0.62-1.14,1.26-1.98,2.44-1.98c0.52,0,0.82,0.18,0.96,0.42
		c0.18,0.34,0.12,0.48,0.22,0.48c0.08,0,0.14-0.16,0.42-0.4c0.36-0.32,0.8-0.52,1.42-0.52
		C62.078,41.819,62.798,42.439,62.798,43.599z M59.137,43.819l-0.4,0.98c-0.22,0.56-0.38,0.96-0.38,1.38c0,0.42,0.16,0.64,0.5,0.64
		c0.96,0,2.021-2.541,2.021-3.521c0-0.44-0.12-0.74-0.46-0.74C59.937,42.559,59.417,43.139,59.137,43.819z"/>
</g>
<g>
	<path d="M27.077,32.825c0-1.161,1.04-3.741,4.381-3.741c1.3,0,2.201,0.74,2.201,1.88c0,0.72-0.74,3.721-4.421,3.721
		C28.018,34.686,27.077,34.005,27.077,32.825z M32.958,30.905c0-0.16-0.06-0.3-0.12-0.42c-0.16-0.28-0.4-0.48-0.82-0.48
		c-0.46,0-1.16,0.24-2.26,0.88c-1.541,0.88-2.021,1.5-2.021,1.98c0,0.16,0.06,0.32,0.14,0.44c0.14,0.28,0.42,0.52,0.88,0.52
		c0.48,0,1.181-0.24,2.181-0.92C32.499,31.885,32.958,31.345,32.958,30.905z"/>
</g>
<g>
	<path d="M55.304,15.465c0-1.161,1.04-3.741,4.381-3.741c1.3,0,2.201,0.74,2.201,1.88c0,0.72-0.74,3.721-4.421,3.721
		C56.245,17.325,55.304,16.645,55.304,15.465z M61.186,13.544c0-0.16-0.06-0.3-0.12-0.42c-0.16-0.28-0.4-0.48-0.82-0.48
		c-0.46,0-1.16,0.24-2.26,0.88c-1.541,0.88-2.021,1.5-2.021,1.98c0,0.16,0.06,0.32,0.14,0.44c0.14,0.28,0.42,0.52,0.88,0.52
		c0.48,0,1.181-0.24,2.181-0.92C60.726,14.524,61.186,13.984,61.186,13.544z"/>
</g>
<g>
	<path d="M10.501,16.563c0.06,0.36,0.06,0.36,0.581,0.36c2.94,0,4.821,2.26,4.821,4.821c0,2.261-1.34,3.961-3.361,4.761
		c-0.28,0.12-0.3,0.1-0.26,0.34c0.22,1.24,0.58,3.141,0.58,4.281c0,3.4-2.601,4-3.941,4c-3.021,0-3.801-1.96-3.801-3.26
		c0-1.241,0.8-2.301,2.141-2.301c1.22,0,1.92,0.94,1.92,2.041c0,1.16-0.72,1.7-1.34,1.88c-0.46,0.14-0.64,0.2-0.64,0.34
		c0,0.26,0.52,0.581,1.6,0.581c1.18,0,3.181-0.36,3.181-3.321c0-0.94-0.3-2.681-0.54-4.021c-0.04-0.24-0.08-0.22-0.3-0.18
		c-0.4,0.08-0.92,0.12-1.38,0.12c-4.901,0-7.282-3.301-7.282-6.781c0-2.141,0.86-4.001,2.24-5.721c1.041-1.28,2.421-2.5,3.701-3.561
		c0.24-0.2,0.22-0.24,0.18-0.48c-0.14-0.82-0.28-2.121-0.28-3.281c0-2.081,0.48-4.581,1.96-6.221c0.4-0.44,1.02-0.96,1.3-0.96
		c0.22,0,0.74,0.56,1.04,1c0.82,1.2,1.3,2.92,1.3,4.661c0,2.261-1,4.641-2.681,6.481c-0.38,0.42-0.8,0.84-1.12,1.141
		c-0.12,0.12-0.16,0.14-0.12,0.38L10.501,16.563z M9.281,14.163c-0.04-0.22-0.08-0.24-0.28-0.08c-0.94,0.76-1.86,1.5-3.061,2.841
		c-1.661,1.88-1.86,3.46-1.86,4.641c0,2.78,2.26,4.721,5.761,4.721c0.4,0,0.8-0.04,1.121-0.1c0.3-0.06,0.32-0.06,0.28-0.28l-1-5.961
		c-0.04-0.22-0.08-0.24-0.4-0.16c-1.22,0.34-2,1.201-2,2.341c0,0.92,0.6,1.78,1.44,2.14c0.14,0.06,0.3,0.12,0.3,0.26
		c0,0.12-0.08,0.22-0.24,0.22c-0.14,0-0.38-0.06-0.54-0.12c-1.36-0.46-2.3-1.74-2.3-3.541c0-1.7,1.14-3.281,2.9-3.881
		c0.36-0.12,0.36-0.1,0.3-0.48L9.281,14.163z M9.221,8.142c0,0.64,0.04,1.32,0.12,1.84c0.04,0.26,0.12,0.28,0.26,0.16
		c0.46-0.4,0.94-0.86,1.26-1.18c1.56-1.56,2.22-2.84,2.22-4.221c0-1.1-0.54-1.641-1.2-1.641C10.661,3.101,9.221,5.021,9.221,8.142z
		 M12.062,25.605c0.04,0.24,0.08,0.24,0.32,0.12c1.12-0.56,1.88-1.58,1.88-2.84c0-1.761-1.34-3.121-2.961-3.261
		c-0.24-0.02-0.26,0.04-0.22,0.28L12.062,25.605z"/>
</g>
<polyline points="51.223,44.407 37.573,41.514 37.573,42.34 49.216,44.82 37.573,47.3 37.573,48.127 51.223,45.233 "/>
</svg>
