<svg id="Layer_1" data-name="Layer 1" xmlns="http://www.w3.org/2000/svg" width="1.55in" height="0.7in" viewBox="0 0 111.64 50.26">
  <title>sequence-el-6</title>
  <rect y="26.61" width="110.86" height="0.62"/>
  <rect y="16.69" width="110.86" height="0.62"/>
  <rect y="11.73" width="110.86" height="0.62"/>
  <rect y="21.65" width="110.86" height="0.62"/>
  <rect y="6.77" width="110.86" height="0.62"/>
  <rect x="110.65" y="6.77" width="0.99" height="20.46"/>
  <rect x="25.09" y="31.47" width="13.16" height="0.83"/>
  <path d="M29.27,41.94c.28,0,.3,0,.4-.3.66-1.92,1.74-3.3,3.68-3.3,1.26,0,1.72.6,1.72,1.34a1,1,0,0,1-1,1.08.81.81,0,0,1-.9-.84.79.79,0,0,1,.42-.76c.22-.1.32-.08.32-.2s-.16-.16-.32-.16c-1,0-1.44,1.06-1.84,2.8a1.93,1.93,0,0,0,0,.24c0,.1.06.1.2.1h1.2a.27.27,0,0,1,.3.3.28.28,0,0,1-.32.32h-1.3c-.1,0-.26.18-.26.22s0,0,0,.06A25.71,25.71,0,0,1,30,47c-1.1,2.26-2,3.28-3.56,3.28A1.34,1.34,0,0,1,25,48.92a1,1,0,0,1,1-1.1.8.8,0,0,1,.9.82.87.87,0,0,1-.4.74c-.3.2-.48.1-.48.26s.1.18.36.18c.8,0,1.16-.64,1.72-2.6l1.26-4.38a1.68,1.68,0,0,0,0-.2c0-.08,0-.08-.16-.08H28.09a.27.27,0,0,1-.3-.3.28.28,0,0,1,.32-.32Z" transform="translate(0 0)"/>
  <path d="M72.82,43.52c0,1.9-1.57,3.9-3.49,3.9a1.83,1.83,0,0,1-.88-.18c-.32-.16-.38-.36-.48-.36s-.14.14-.18.24l-.9,2.24a.82.82,0,0,0,0,.14c0,.06.06.06.18.06h.8a.21.21,0,0,1,.24.24c0,.18-.08.26-.26.26H64a.21.21,0,0,1-.24-.24c0-.18.08-.26.26-.26h.62c.2,0,.24,0,.3-.2l2.46-6.1a1.41,1.41,0,0,0,.12-.5c0-.14-.06-.24-.22-.24-.36,0-.76.52-1.34,1.52-.1.18-.18.3-.32.3a.21.21,0,0,1-.22-.22.81.81,0,0,1,.14-.38c.62-1.14,1.26-2,2.44-2a1,1,0,0,1,1,.42c.18.34.12.48.22.48s.14-.16.42-.4A2,2,0,0,1,71,41.74,1.66,1.66,0,0,1,72.82,43.52Zm-3.67.22-.4,1a3.9,3.9,0,0,0-.38,1.38c0,.42.16.64.5.64,1,0,2-2.54,2-3.52,0-.44-.12-.74-.46-.74S69.43,43.06,69.15,43.74Z" transform="translate(0 0)"/>
  <path d="M36.26,31.84c0,1.53-1.14,2.77-4.7,2.77-3.24,0-4.48-1.3-4.48-2.77s1.8-2.7,4.7-2.7C33.8,29.14,36.26,30.3,36.26,31.84ZM29.42,31A3.2,3.2,0,0,0,30.18,33a3.51,3.51,0,0,0,.46.48,3.06,3.06,0,0,0,1,.58,1.93,1.93,0,0,0,.58.08A2.48,2.48,0,0,0,32.9,34a1.26,1.26,0,0,0,1-1.06,2.46,2.46,0,0,0,0-.4,3,3,0,0,0-2.68-2.92c-.68,0-1.48.12-1.72.86A1.68,1.68,0,0,0,29.42,31Z" transform="translate(0 0)"/>
  <path d="M10.5,16.56c.06.36.06.36.58.36a4.71,4.71,0,0,1,4.82,4.82,5,5,0,0,1-3.36,4.76c-.28.12-.3.1-.26.34a30.55,30.55,0,0,1,.58,4.29,3.69,3.69,0,0,1-3.94,4c-3,0-3.8-2-3.8-3.26a2.15,2.15,0,0,1,2.14-2.31,1.9,1.9,0,0,1,1.92,2.05,1.83,1.83,0,0,1-1.34,1.88c-.46.14-.64.2-.64.34s.52.58,1.6.58S12,34.05,12,31.09a29.55,29.55,0,0,0-.54-4c0-.24-.08-.22-.3-.18A7.54,7.54,0,0,1,9.76,27c-4.9,0-7.28-3.31-7.28-6.79A9,9,0,0,1,4.72,14.5a27.11,27.11,0,0,1,3.7-3.56c.24-.2.22-.24.18-.48a21.36,21.36,0,0,1-.28-3.28,9.47,9.47,0,0,1,2-6.22c.4-.44,1-1,1.3-1s.74.56,1,1a8.5,8.5,0,0,1,1.3,4.66,9.88,9.88,0,0,1-2.68,6.48c-.38.42-.8.84-1.12,1.14-.12.12-.16.14-.12.38Zm-1.22-2.4c0-.22-.08-.24-.28-.08a23.19,23.19,0,0,0-3.06,2.84,6.53,6.53,0,0,0-1.86,4.64c0,2.78,2.26,4.73,5.76,4.73a6.3,6.3,0,0,0,1.12-.1c.3-.06.32-.06.28-.28l-1-6c0-.22-.08-.24-.4-.16a2.46,2.46,0,0,0-2,2.35,2.39,2.39,0,0,0,1.44,2.14c.14.06.3.12.3.26a.22.22,0,0,1-.24.22,1.89,1.89,0,0,1-.54-.12,3.52,3.52,0,0,1-2.3-3.55A4.17,4.17,0,0,1,9.4,17.2c.36-.12.36-.1.3-.48Zm-.06-6A12.92,12.92,0,0,0,9.34,10c0,.26.12.28.26.16.46-.4.94-.86,1.26-1.18,1.56-1.56,2.22-2.84,2.22-4.22,0-1.1-.54-1.64-1.2-1.64C10.66,3.1,9.22,5,9.22,8.14ZM12.06,25.6c0,.24.08.24.32.13a3.18,3.18,0,0,0,1.88-2.84,3.26,3.26,0,0,0-3-3.27c-.24,0-.26,0-.22.28Z" transform="translate(0 0)"/>
  <polyline points="61.24 44.33 37.57 41.4 37.57 42.23 57.86 44.74 37.57 47.25 37.57 48.08 61.24 45.16"/>
</svg>
